<?xml version="1.0" encoding="utf-8"?>
<!-- Generator: Adobe Illustrator 26.0.1, SVG Export Plug-In . SVG Version: 6.00 Build 0)  -->
<svg version="1.1" id="Calque_1" xmlns="http://www.w3.org/2000/svg" xmlns:xlink="http://www.w3.org/1999/xlink" x="0px" y="0px"
	 viewBox="0 0 576 512" style="enable-background:new 0 0 576 512;" xml:space="preserve">
<style type="text/css">
	.st0{display:none;}
</style>
<g>
	<path d="M346.7,368H229.3c-29.5,0-53.3,39.9-53.3,69.3c0,5.9,4.8,10.7,10.7,10.7h202.6c5.9,0,10.7-4.8,10.7-10.7
		C400,407.8,376.1,368,346.7,368z"/>
	<circle cx="288" cy="272" r="64"/>
</g>
<path d="M256,128h64c17.7,0,32-14.3,32-32V32c0-17.7-14.3-32-32-32h-64c-17.7,0-32,14.3-32,32v64C224,113.7,238.3,128,256,128z"/>
<path d="M512,64H384v48c0,0.7,0,1.4-0.1,2.1h112.4c8.4,0,15.2,6.8,15.2,15.2v317.4c0,8.4-6.8,15.2-15.2,15.2H79.6
	c-8.4,0-15.2-6.8-15.2-15.2V129.3c0-8.4,6.8-15.2,15.2-15.2h112.4c0-0.7-0.1-1.4-0.1-2.1V64H64C28.7,64,0,92.7,0,128v320
	c0,35.3,28.7,64,64,64h448c35.3,0,64-28.7,64-64V128C576,92.7,547.3,64,512,64z"/>
<circle cx="288" cy="272" r="64"/>
<path class="st0" d="M240,160h96c25.8,0,46.8-20.4,47.9-45.9H192.1C193.2,139.6,214.2,160,240,160z"/>
<path d="M186.7,448h202.6c5.9,0,10.7-4.8,10.7-10.7c0-29.5-23.9-69.3-53.3-69.3H229.3c-29.5,0-53.3,39.9-53.3,69.3
	C176,443.2,180.8,448,186.7,448z"/>
<path class="st0" d="M64.4,129.3v317.4c0,8.4,6.8,15.2,15.2,15.2h416.8c8.4,0,15.2-6.8,15.2-15.2V129.3c0-8.4-6.8-15.2-15.2-15.2
	H383.9c-1.1,25.5-22.2,45.9-47.9,45.9h-96c-25.8,0-46.8-20.4-47.9-45.9H79.6C71.2,114.1,64.4,120.9,64.4,129.3z M288,224
	c35.3,0,64,28.7,64,64s-28.7,64-64,64s-64-28.7-64-64S252.7,224,288,224z M229.3,384h117.4c29.4,0,53.3,23.8,53.3,53.3
	c0,5.9-4.8,10.7-10.7,10.7H186.7c-5.9,0-10.7-4.8-10.7-10.7C176,407.9,199.8,384,229.3,384z"/>
</svg>
