<svg id="Calque_1" data-name="Calque 1" xmlns="http://www.w3.org/2000/svg" viewBox="0 0 643.5948 640.982"><defs><style>.cls-1{fill:#e7dfb0;}.cls-2{fill:#fe9a00;}.cls-3{fill:#03a575;}</style></defs><path class="cls-1" d="M283.2721,571.2926a11.0645,11.0645,0,0,1-9.7593-7.32q-.0035-66.6678-.0229-133.3357c-.0006-1.25-.2362-2.5-.3622-3.75.1077-1.2537.31-2.5073.31-3.761q-.002-85.7952-.0343-171.59-.0054-34.0911.0424-68.1822c.0132-8.3568,3.3211-11.6985,11.5231-11.7982.2525-.003.505-.0019.7575-.0061,11.9754-.1979,23.95-.4938,35.9265-.5562,6.6369-.0345,13.2749.3946,19.9141.4809q10.7369.14,21.4762-.0171a11.918,11.918,0,0,0,3.3737-1.1079.8411.8411,0,0,0,.4312-.2893,23.3052,23.3052,0,0,0,3.6742.5847q30.2149.0726,60.43.0482a22.8117,22.8117,0,0,0,2.619-.2947q2.253.037,4.5065.0737c1.8865.0629,3.7741.2033,5.6592.1747,7.0461-.1065,14.0912-.3769,21.1369-.384,10.5726-.0106,21.1455.1489,31.7182.236l4.4975-.17c2.8877.131,5.7752.3685,8.6632.3754q24.2406.0575,48.4815.023c7.2634.0015,10.8819,3.5856,10.8845,10.9288q.0192,53.2246-.0071,106.4494.0165,135.3867.0416,270.7733c0,1.3882-.0623,2.7764-.0947,4.1645-1.8,6.2813-6.3271,7.8339-12.353,7.7916-23.2114-.163-46.4245-.0808-69.637-.0746q-82.6905.022-165.3809.0581ZM519.0245,214.444c-3.0235,0-5.6457-.0042-8.2678.0007-22.8536.0418-45.7071.1261-68.5607.1189q-57.2109-.0179-114.4218-.1359c-3.3631-.0052-5.0187,1.25-4.9769,4.9519.1553,13.7674.082,27.5374.0939,41.3064.0057,6.6152.1255,6.7645,6.8147,6.7664q87.1488.0251,174.2977.0284c3.5363,0,7.073-.0006,10.6088-.0493,3.1529-.0435,4.7342-1.3136,4.6982-4.8442-.1494-14.6509-.0626-29.3043-.0763-43.9568C519.2332,217.5048,519.1249,216.3793,519.0245,214.444ZM294.8423,179.2571c0,7.8733.0441,15.2851-.01,22.6962-.0992,13.7-.3684,27.3989-.3571,41.0982.0117,14.2458.38,28.4913.3893,42.7371.0079,11.8385-.354,23.6769-.4154,35.5159-.0763,14.7413-.01,29.4832-.0092,44.2249q.0012,27.07-.0039,54.14-.0014,36.5472,0,73.0946.0011,29.3789.027,58.7576a58.248,58.248,0,0,0,.562,8.2917c.1161.7932,1.3239,1.4266,2.0313,2.1332a11.8281,11.8281,0,0,0,2.0819-2.1875,4.9918,4.9918,0,0,0,.1172-2.239q.0069-186.696.0085-373.3918c0-1.591,0-3.1821,0-4.8708Z"/><path class="cls-2" d="M366.4165,170.3491a11.918,11.918,0,0,1-3.3737,1.1079q-10.7364.1461-21.4762.0171c-6.6392-.0863-13.2772-.5154-19.9141-.4809-11.9761.0624-23.9511.3583-35.9265.5562-.2525.0042-.505.0031-.7575.0061-8.202.1-11.51,3.4414-11.5231,11.7982q-.0537,34.0911-.0424,68.1822.0133,85.7952.0343,171.59c0,1.2537-.2019,2.5073-.3062,3.76-.7527-.014-1.5089-.0388-2.265-.0392q-97.408-.053-194.8162-.1022c-4.3206-3.248-5.4166-7.65-5.4126-12.9011q.13-170.3608.0685-340.7217c0-11.622-.0241-23.244-.0134-34.866.0066-7.2257,4.3667-11.5963,11.6024-11.5973q106.2951-.0145,212.59-.0108c19.3235-.0015,38.6523.2224,57.9677-.1836,5.8559-.123,9.9506,1.8484,13.3922,6.1268q.0267,22.509.0551,45.0213Q366.3581,123.9811,366.4165,170.3491ZM217.9011,123.5125v.0208q46.4289,0,92.8576-.004c5.4544-.0015,6.1747-.6889,6.1881-6.0746q.0505-20.28.0252-40.56c-.0037-5.8809-.0492-5.9253-5.9151-5.9241q-70.1143.0141-140.2287.0218c-14.7691-.0141-29.5382-.27-44.3066-.4665-4.5579-.0608-5.9135,1.1022-5.9274,5.7419-.0415,13.8991-.0015,27.7985-.0424,41.6976-.0152,5.16.3149,5.5475,5.6282,5.5475ZM96.4624,417.7473c0-1.6842-.0018-3.3119,0-4.94q.0242-19.3156.0472-38.6313Q96.5031,207.78,96.4842,41.3835c0-1.2632-.08-2.5277-.0453-3.7895.0678-2.463-1.15-2.7311-3.509-1.7934,0,2.1676-.0005,4.4222,0,6.6769q.0309,132.2754.0563,264.5506c.0018,24.5017-.0738,49.0035-.0933,73.5052q-.0135,17.0573.0662,34.1145C92.9672,416.4541,92.5708,418.8116,96.4624,417.7473Z"/><path class="cls-2" d="M283.2721,571.2926l38.4157-.475q.0489.5465.0972,1.0927-.0886,1.3213-.1725,2.64a17.0088,17.0088,0,0,0-.8884,3.7215c-.095,9.5689-.0824,19.1389-.1021,28.7086-.003,1.4423,0,2.8845,0,5.5176-2.4433-2.56-3.9845-4.2428-5.6039-5.8463-.9616-.952-2.0467-1.7791-3.0763-2.6625-1.9736-2.5367-3.2359-2.3818-5.2258.4955-2.1137,3.0564-4.3178,6.05-7.0337,9.8408-.5464-2.4292-1.2587-4.16-1.2738-5.8972-.0946-10.8532-.0545-21.7078-.0141-32.5618.0177-4.7663-.77-5.103-5.5757-4.4761-3.1179.4068-6.3947-.4052-9.6006-.6668a1.8566,1.8566,0,0,0-.36.04Z"/><path class="cls-2" d="M519.0245,214.444c.1,1.9353.2087,3.0608.21,4.1865.0137,14.6525-.0731,29.3059.0763,43.9568.036,3.5306-1.5453,4.8007-4.6982,4.8442-3.5358.0487-7.0725.05-10.6088.0493q-87.149-.0087-174.2977-.0284c-6.6892-.0019-6.809-.1512-6.8147-6.7664-.0119-13.769.0614-27.539-.0939-41.3064-.0418-3.7015,1.6138-4.9571,4.9769-4.9519q57.2109.0881,114.4218.1359c22.8536.0072,45.7071-.0771,68.5607-.1189C513.3788,214.44,516.001,214.444,519.0245,214.444Z"/><path class="cls-2" d="M294.8423,179.2571h4.4219c0,1.6887,0,3.28,0,4.8708q-.003,186.6958-.0085,373.3918a4.9918,4.9918,0,0,1-.1172,2.239,11.8281,11.8281,0,0,1-2.0819,2.1875c-.7074-.7066-1.9152-1.34-2.0313-2.1332a58.248,58.248,0,0,1-.562-8.2917q-.0644-29.3787-.027-58.7576-.0014-36.5473,0-73.0946.0009-27.07.0039-54.14c-.0007-14.7417-.0671-29.4836.0092-44.2249.0614-11.839.4233-23.6774.4154-35.5159-.0094-14.2458-.3776-28.4913-.3893-42.7371-.0113-13.6993.2579-27.3986.3571-41.0982C294.8864,194.5422,294.8423,187.13,294.8423,179.2571Z"/><path class="cls-1" d="M217.9011,123.5125H126.18c-5.3133,0-5.6434-.3872-5.6282-5.5475.0409-13.8991.0009-27.7985.0424-41.6976.0139-4.64,1.37-5.8027,5.9274-5.7419,14.7684.197,29.5375.4524,44.3066.4665q70.1142.0673,140.2287-.0218c5.8659-.0012,5.9114.0432,5.9151,5.9241q.0128,20.28-.0252,40.56c-.0134,5.3857-.7337,6.0731-6.1881,6.0746q-46.4287.0126-92.8576.004Z"/><path class="cls-3" d="M96.4624,417.7473c-3.8916,1.0643-3.4952-1.2932-3.5033-3.0995q-.0774-17.0571-.0662-34.1145c.02-24.5017.0951-49.0035.0933-73.5052q-.01-132.2752-.0563-264.5506c-.0005-2.2547,0-4.5093,0-6.6769,2.3591-.9377,3.5768-.67,3.509,1.7934-.0347,1.2618.0452,2.5263.0453,3.7895q.0166,166.3965.0257,332.7929.0007,19.3156-.0472,38.6313C96.4606,414.4354,96.4624,416.0631,96.4624,417.7473Z"/></svg>